<svg width="276" height="143" viewBox="0 0 276 143" fill="none" xmlns="http://www.w3.org/2000/svg">
<path d="M104.224 119.754L105.405 116.62H117.598L118.778 119.754H104.224ZM111.423 106.747L106.781 117.639L106.467 118.344L102.376 127.982H98.6389L111.423 99.1858L124.207 127.982H120.47L116.458 118.579L116.143 117.795L111.423 106.747ZM148.404 100.557H151.748V129.353L130.9 107.57V127.982H127.557V99.1858L148.404 120.969V100.557ZM155.303 103.691V100.557H172.807V103.691H165.727V127.982H162.383V103.691H155.303ZM176.341 100.557H179.685V127.982H176.341V100.557ZM187.95 114.269C187.95 116.333 188.395 118.174 189.287 119.793C190.205 121.413 191.45 122.693 193.024 123.633C194.597 124.573 196.38 125.043 198.373 125.043C200.392 125.043 202.176 124.573 203.723 123.633C205.296 122.693 206.529 121.413 207.42 119.793C208.338 118.174 208.797 116.333 208.797 114.269C208.797 112.206 208.338 110.365 207.42 108.745C206.529 107.126 205.296 105.846 203.723 104.906C202.176 103.966 200.392 103.495 198.373 103.495C196.38 103.495 194.597 103.966 193.024 104.906C191.45 105.846 190.205 107.126 189.287 108.745C188.395 110.365 187.95 112.206 187.95 114.269ZM184.409 114.269C184.409 112.258 184.75 110.404 185.432 108.706C186.14 106.982 187.123 105.493 188.382 104.24C189.641 102.96 191.123 101.967 192.827 101.262C194.532 100.531 196.38 100.165 198.373 100.165C200.392 100.165 202.241 100.531 203.919 101.262C205.624 101.967 207.106 102.96 208.364 104.24C209.623 105.493 210.593 106.982 211.275 108.706C211.983 110.404 212.337 112.258 212.337 114.269C212.337 116.254 211.983 118.109 211.275 119.833C210.593 121.556 209.623 123.058 208.364 124.338C207.106 125.592 205.624 126.584 203.919 127.316C202.241 128.021 200.392 128.373 198.373 128.373C196.38 128.373 194.532 128.021 192.827 127.316C191.123 126.584 189.641 125.592 188.382 124.338C187.123 123.058 186.14 121.556 185.432 119.833C184.75 118.109 184.409 116.254 184.409 114.269ZM197.744 116.228H202.071L213.871 127.982H209.544L197.744 116.228ZM216.862 100.557H220.205V118.971C220.205 120.851 220.717 122.366 221.74 123.515C222.762 124.665 224.257 125.239 226.224 125.239C228.19 125.239 229.685 124.665 230.708 123.515C231.731 122.366 232.242 120.851 232.242 118.971V100.557H235.585V118.971C235.585 120.329 235.362 121.583 234.917 122.732C234.497 123.881 233.868 124.874 233.029 125.709C232.216 126.545 231.232 127.198 230.079 127.668C228.925 128.138 227.64 128.373 226.224 128.373C224.808 128.373 223.523 128.138 222.369 127.668C221.215 127.198 220.219 126.545 219.379 125.709C218.566 124.874 217.937 123.881 217.491 122.732C217.072 121.583 216.862 120.329 216.862 118.971V100.557ZM243.53 127.982V124.847H257.416V127.982H243.53ZM243.53 103.691V100.557H257.416V103.691H243.53ZM243.53 114.661V111.527H256.629V114.661H243.53ZM241.682 100.557H245.025V127.982H241.682V100.557Z" fill="#E7B846"/>
<path d="M6.00596 114.269C6.00596 116.333 6.45176 118.174 7.34333 119.793C8.26114 121.413 9.50675 122.693 11.0801 123.633C12.6535 124.573 14.4367 125.043 16.4297 125.043C18.4489 125.043 20.2321 124.573 21.7792 123.633C23.3526 122.693 24.5851 121.413 25.4767 119.793C26.3945 118.174 26.8534 116.333 26.8534 114.269C26.8534 112.206 26.3945 110.365 25.4767 108.745C24.5851 107.126 23.3526 105.846 21.7792 104.906C20.2321 103.966 18.4489 103.495 16.4297 103.495C14.4367 103.495 12.6535 103.966 11.0801 104.906C9.50675 105.846 8.26114 107.126 7.34333 108.745C6.45176 110.365 6.00596 112.206 6.00596 114.269ZM2.46582 114.269C2.46582 112.258 2.80672 110.404 3.48853 108.706C4.19656 106.982 5.17993 105.493 6.43865 104.24C7.69734 102.96 9.17896 101.967 10.8835 101.262C12.588 100.531 14.4367 100.165 16.4297 100.165C18.4489 100.165 20.2976 100.531 21.9759 101.262C23.6804 101.967 25.162 102.96 26.4208 104.24C27.6795 105.493 28.6497 106.982 29.3315 108.706C30.0396 110.404 30.3936 112.258 30.3936 114.269C30.3936 116.254 30.0396 118.109 29.3315 119.833C28.6497 121.556 27.6795 123.058 26.4208 124.338C25.162 125.592 23.6804 126.584 21.9759 127.316C20.2976 128.021 18.4489 128.373 16.4297 128.373C14.4367 128.373 12.588 128.021 10.8835 127.316C9.17896 126.584 7.69734 125.592 6.43865 124.338C5.17993 123.058 4.19656 121.556 3.48853 119.833C2.80672 118.109 2.46582 116.254 2.46582 114.269ZM15.8003 116.228H20.1272L31.9277 127.982H27.6008L15.8003 116.228ZM34.9187 100.557H38.2621V118.971C38.2621 120.851 38.7735 122.366 39.7962 123.515C40.8189 124.665 42.3136 125.239 44.2804 125.239C46.2471 125.239 47.7419 124.665 48.7646 123.515C49.7873 122.366 50.2986 120.851 50.2986 118.971V100.557H53.6421V118.971C53.6421 120.329 53.4192 121.583 52.9734 122.732C52.5538 123.881 51.9245 124.874 51.0853 125.709C50.2724 126.545 49.289 127.198 48.1352 127.668C46.9814 128.138 45.6964 128.373 44.2804 128.373C42.8643 128.373 41.5794 128.138 40.4256 127.668C39.2717 127.198 38.2753 126.545 37.4361 125.709C36.6232 124.874 35.9938 123.881 35.548 122.732C35.1285 121.583 34.9187 120.329 34.9187 118.971V100.557ZM62.3735 119.754L63.5536 116.62H75.7472L76.9273 119.754H62.3735ZM69.5716 106.747L64.9303 117.639L64.6156 118.344L60.5248 127.982H56.788L69.5716 99.1858L82.3555 127.982H78.6187L74.6065 118.579L74.2918 117.795L69.5716 106.747ZM85.7055 100.557H89.049V127.982H85.7055V100.557Z" fill="#FAFEFF"/>
<path d="M1.63892 134.838H273.05" stroke="#E7B846" stroke-width="2" stroke-linecap="round"/>
<path d="M109.938 28.6638C109.938 24.7467 109.857 19.8422 105.629 16.772C100.517 13.0583 92.1664 12.3784 84.953 12.1957C70.6515 11.8333 57.2029 17.3111 46.3019 22.8181C28.4928 31.8151 15.5716 42.9556 7.447 56.7734C3.2634 63.8886 1.09625 71.3374 1.32813 78.9706C1.49487 84.4594 3.02387 91.851 9.56309 95.823C14.3182 98.7104 21.0103 97.125 25.8036 95.1714C37.1121 90.5621 45.8828 83.2436 54.1545 76.565C82.6769 53.5367 103.847 27.6931 124.165 1.30591" stroke="#FAFEFF" stroke-linecap="round"/>
<path d="M114.442 16.5508C101.717 29.8444 88.8549 43.3724 78.8179 57.7307C76.9928 60.3415 75.262 63.0118 73.7712 65.7218C73.4828 66.2468 71.5141 69.0663 72.468 69.8002C73.7608 70.796 87.2264 59.0387 88.1101 58.2787C103.681 44.8874 119.098 31.4306 134.46 17.9273C135.348 17.1475 136.257 16.3734 137.123 15.5822C138.315 14.4951 134.647 17.7071 133.362 18.743C125.167 25.3496 117.084 31.9872 109.377 38.8677C92.8801 53.5947 76.0199 69.3209 65.2053 86.4457C64.8946 86.938 59.9825 94.6489 64.7211 93.4814C67.0351 92.9107 69.1278 91.055 70.6802 89.8999C76.3667 85.668 81.7385 81.2272 87.1792 76.8483C94.6896 70.8045 101.918 64.608 109.283 58.4826C116.535 52.4527 95.2389 70.8391 89.3393 77.5242C88.1482 78.8739 79.8387 88.6468 84.3117 89.721C87.9771 90.6012 93.261 85.5367 95.336 83.9984" stroke="#FAFEFF" stroke-linecap="round"/>
<path d="M124.279 48.0549C124.231 48.4959 124.118 48.175 123.935 48.0549" stroke="#FAFEFF" stroke-width="2" stroke-linecap="round"/>
<path d="M125.721 62.6212C123.073 60.996 117.046 65.2509 115.687 66.0039C108.623 69.9223 104.102 73.959 101.049 79.7266C99.5815 82.4985 98.3438 86.5182 104.362 86.1349C111.564 85.6765 117.832 82.046 123.082 78.9862C137.013 70.8665 149.858 61.5538 160.165 51.1833C160.22 51.1276 167.055 43.3198 162.824 43.3198C158.582 43.3198 153.658 47.9938 151.199 49.7663C143.861 55.0547 138.403 61.2667 132.61 67.3444C128.111 72.0641 123.082 76.7347 119.244 81.7313C116.788 84.9288 119.326 81.8011 120.424 80.6075C122.05 78.8393 124.049 77.2062 126.021 75.6162C131.245 71.4033 137.245 65.9471 144.703 63.4892C147.391 62.6035 148.25 63.6813 147.286 65.2253C145.67 67.8146 142.918 70.1979 140.753 72.578C138.72 74.8118 131.084 80.9823 133.284 83.9396C135.23 86.5547 142.167 81.6111 143.58 80.7734" stroke="#FAFEFF" stroke-linecap="round"/>
<path d="M157.054 72.1851C159.681 70.4403 162.177 68.6512 164.486 66.7047C165.513 65.8395 168.252 63.4039 166.69 63.7222C161.446 64.7897 156.411 68.4664 152.48 70.8595C148.166 73.4845 144.481 76.2361 141.389 79.5897C140.887 80.1343 135.27 86.233 139.802 85.9242C144.982 85.5703 150.621 81.1418 154.142 78.9394C160.815 74.7656 166.712 70.0453 172.777 65.468C174.819 63.927 181.171 59.5941 178.527 60.6252C174.766 62.0925 171.317 65.0987 168.557 67.2911C164.702 70.3528 161.072 73.6928 158.549 77.3592C157.858 78.3615 154.532 82.7449 156.644 83.7824C160.706 85.7792 175.653 71.9689 177.557 70.3496C180.849 67.5483 183.963 64.6204 187.677 62.0654C188.296 61.639 191.374 59.5435 191.243 61.5045C191.02 64.8537 187.044 68.5526 184.54 71.267C181.379 74.6931 177.869 77.9723 174.513 81.3103C169.431 86.3643 183.954 70.8328 189.693 66.1183C193.332 63.1298 197.411 60.0402 202.129 57.8085C205.956 55.9988 203.792 59.7599 203.007 60.7526C200.332 64.1332 196.881 67.2264 193.895 70.4769C191.669 72.8994 185.757 78.1623 187.005 81.3867C188.036 84.0521 194.526 79.4768 195.258 78.9394C203.624 72.8028 210.159 65.1764 216.88 58.2036C222.512 52.3607 227.804 46.3491 232.434 40.1058C233.66 38.4529 236.839 33.6473 232.303 37.4421C225.849 42.8428 219.778 48.527 213.781 54.1635C209.404 58.2764 205.294 62.5006 201.251 66.768C198.272 69.9134 195.188 73.2409 192.158 76.3654C191.565 76.9765 187.53 81.3645 185.735 82.3041C183.8 83.3175 184.464 78.9537 185.026 77.3337C186.184 73.9879 188.319 70.9144 190.683 67.9022C194.562 62.9609 198.615 57.0956 204.855 53.2968C207.472 51.7036 210.61 50.5825 213.724 49.5243C220.862 47.0993 228.233 44.9484 235.552 42.795C248.403 39.0143 261.561 35.7914 274.689 32.4971" stroke="#FAFEFF" stroke-linecap="round"/>
<path d="M220.995 79.6216C222.504 79.6216 227.284 79.7443 227.88 80.524" stroke="#FAFEFF" stroke-width="2" stroke-linecap="round"/>
</svg>
